<?xml version="1.0" standalone="no"?>
<!DOCTYPE svg PUBLIC "-//W3C//DTD SVG 20010904//EN"
 "http://www.w3.org/TR/2001/REC-SVG-20010904/DTD/svg10.dtd">
<svg version="1.0" xmlns="http://www.w3.org/2000/svg"
 width="380.000000pt" height="380.000000pt" viewBox="0 0 380.000000 380.000000"
 preserveAspectRatio="xMidYMid meet">

<g transform="translate(0.000000,380.000000) scale(0.100000,-0.100000)"
fill="#000000" stroke="none">
<path d="M1150 3645 l0 -145 -410 0 -410 0 0 -145 0 -145 1550 0 1550 0 0 145
0 145 -407 2 -408 3 -3 143 -3 142 -729 0 -730 0 0 -145z m1165 -135 c4 -7
-143 -10 -435 -10 -292 0 -439 3 -435 10 4 6 160 10 435 10 275 0 431 -4 435
-10z"/>
<path d="M568 3109 c-17 -9 -18 -84 -18 -1343 0 -1297 1 -1333 19 -1350 12
-11 19 -30 18 -51 -1 -19 6 -42 16 -53 9 -10 17 -28 17 -41 0 -14 9 -25 25
-31 14 -5 25 -15 25 -22 0 -7 36 -50 80 -95 75 -77 84 -83 121 -83 26 0 42 -5
45 -15 5 -13 120 -15 944 -15 824 0 939 2 944 15 4 10 20 15 51 15 31 0 47 5
51 15 4 8 17 15 30 15 18 0 50 25 109 85 69 69 85 91 85 115 0 23 6 33 25 40
24 9 25 13 25 90 0 66 3 83 20 100 19 19 20 38 20 1300 0 873 -3 1287 -10
1300 -10 18 -22 20 -126 20 -63 0 -124 -5 -135 -10 -19 -11 -19 -36 -19 -1300
0 -1279 0 -1289 -20 -1300 -16 -8 -20 -21 -20 -56 0 -41 -5 -51 -45 -90 -28
-28 -53 -44 -68 -44 -14 0 -27 -7 -31 -15 -5 -13 -110 -15 -865 -15 -754 0
-860 2 -865 15 -3 8 -16 15 -28 15 -34 0 -128 90 -128 123 0 14 -7 27 -15 31
-13 5 -15 164 -17 1323 l-3 1318 -120 2 c-69 2 -127 -2 -137 -8z"/>
<path d="M1160 2950 c-7 -12 -10 -416 -10 -1209 0 -1167 0 -1191 19 -1201 25
-13 231 -13 251 0 13 8 15 150 18 1162 1 634 -1 1178 -5 1208 l-8 55 -127 2
c-117 2 -128 1 -138 -17z"/>
<path d="M1738 2959 c-17 -9 -18 -78 -18 -1209 0 -1175 0 -1200 19 -1210 11
-5 72 -10 135 -10 104 0 116 2 126 19 14 27 14 2375 0 2402 -10 17 -22 19
-128 19 -64 0 -125 -5 -134 -11z"/>
<path d="M2350 2963 c-8 -3 -18 -11 -22 -17 -4 -6 -8 -545 -8 -1198 0 -1065 2
-1188 16 -1202 23 -24 259 -23 268 0 3 9 6 552 6 1208 0 914 -3 1195 -12 1204
-12 12 -218 16 -248 5z"/>
</g>
</svg>
