<?xml version="1.0" standalone="no"?>
<!DOCTYPE svg PUBLIC "-//W3C//DTD SVG 20010904//EN"
 "http://www.w3.org/TR/2001/REC-SVG-20010904/DTD/svg10.dtd">
<svg version="1.0" xmlns="http://www.w3.org/2000/svg"
 width="122.000000pt" height="124.000000pt" viewBox="0 0 122.000000 124.000000"
 preserveAspectRatio="xMidYMid meet">

<g transform="translate(0.000000,124.000000) scale(0.100000,-0.100000)"
fill="#000000" stroke="none">
<path d="M575 1216 c-14 -21 -15 -33 -6 -76 6 -28 11 -53 11 -55 0 -3 -18 -14
-40 -25 -22 -11 -47 -31 -56 -45 -9 -14 -26 -25 -37 -25 -11 0 -28 -7 -37 -15
-14 -13 -22 -13 -64 0 -111 34 -218 12 -283 -56 -55 -58 -68 -133 -38 -207 24
-55 51 -79 148 -129 65 -34 95 -56 112 -82 74 -117 166 -152 278 -106 13 5 17
2 17 -13 0 -27 25 -45 51 -37 20 7 21 12 16 61 -5 45 -3 54 10 54 13 0 15 -11
9 -72 -4 -40 -9 -80 -12 -89 -5 -17 19 -49 36 -49 23 0 42 35 38 72 -2 21 -1
38 2 38 3 -1 22 -16 44 -35 l39 -34 -13 -43 c-26 -92 -22 -136 13 -123 19 8
37 56 37 101 0 41 8 46 59 38 l40 -6 3 -127 c3 -121 4 -126 25 -129 33 -5 46
28 33 80 -6 24 -10 74 -8 112 l3 70 52 11 c61 14 116 53 140 98 21 41 21 140
0 189 -24 56 -102 134 -152 154 l-44 16 -3 67 c-3 71 -16 85 -53 58 -15 -11
-18 -25 -16 -64 l2 -50 -52 -7 c-28 -4 -70 -14 -94 -22 -70 -23 -71 -22 -78
148 -4 84 -4 154 -2 157 3 2 16 -1 29 -9 31 -16 50 -61 43 -99 -4 -17 0 -36 8
-47 13 -18 14 -18 34 0 28 26 34 49 22 93 -12 43 -61 96 -105 113 -28 10 -29
12 -22 65 5 48 4 54 -14 60 -12 4 -27 2 -35 -5 -11 -9 -14 -6 -17 17 -4 39
-50 45 -73 9z m84 -103 c1 -13 -3 -23 -9 -23 -5 0 -10 19 -9 43 0 32 2 37 9
22 5 -11 9 -30 9 -42z m6 -135 c3 -24 5 -90 3 -147 l-3 -103 -22 18 c-20 18
-21 25 -16 147 4 95 9 127 19 127 7 0 15 -17 19 -42z m-85 -88 c0 -56 -4 -100
-9 -100 -6 0 -21 15 -35 33 -23 31 -30 52 -27 89 1 19 48 78 62 78 5 0 9 -45
9 -100z m-282 39 c66 -14 146 -67 182 -120 16 -24 45 -55 65 -68 l35 -24 0
-83 c0 -46 -3 -84 -8 -84 -4 0 -18 7 -30 16 -33 23 -66 15 -70 -18 -3 -23 3
-30 45 -51 l48 -25 -34 -31 c-77 -72 -171 -14 -171 107 0 46 32 99 68 113 21
9 38 7 75 -6 27 -9 51 -14 54 -12 10 10 -18 47 -47 62 -81 42 -182 -8 -207
-103 l-8 -32 -60 36 c-76 45 -102 70 -126 116 -33 65 -16 163 34 190 53 28 87
32 155 17z m622 -236 c0 -5 -13 -53 -28 -108 -28 -98 -29 -100 -63 -107 -43
-8 -46 -5 -20 23 30 32 28 94 -4 141 l-25 36 28 10 c32 12 112 15 112 5z
m-253 -96 c-7 -85 -9 -93 -26 -82 -7 3 -11 41 -11 90 0 80 1 83 21 78 21 -6
21 -10 16 -86z m430 -2 c76 -110 61 -219 -38 -270 -52 -28 -59 -22 -59 50 l0
65 54 0 c57 0 83 17 72 45 -5 13 -16 15 -66 9 l-60 -7 0 98 0 97 33 -20 c17
-11 47 -41 64 -67z m-327 -19 c0 -20 -27 -56 -42 -56 -12 0 -10 68 3 92 11 21
12 21 25 3 8 -10 14 -28 14 -39z m180 -68 c0 -18 -17 -34 -27 -25 -3 3 -2 20
2 38 5 23 10 28 16 18 5 -8 9 -22 9 -31z m-200 -54 c0 -8 -5 -12 -10 -9 -6 4
-8 11 -5 16 9 14 15 11 15 -7z m200 -85 l0 -71 -32 7 c-44 10 -50 14 -44 33 3
10 10 36 16 60 9 35 15 42 35 42 24 0 25 -2 25 -71z m-112 20 c-6 -21 -14 -39
-18 -39 -7 0 -70 66 -70 73 0 1 22 3 49 4 l48 1 -9 -39z"/>
</g>
</svg>
