<?xml version="1.0" standalone="no"?>
<!DOCTYPE svg PUBLIC "-//W3C//DTD SVG 20010904//EN"
 "http://www.w3.org/TR/2001/REC-SVG-20010904/DTD/svg10.dtd">
<svg version="1.0" xmlns="http://www.w3.org/2000/svg"
 width="380.000000pt" height="380.000000pt" viewBox="0 0 380.000000 380.000000"
 preserveAspectRatio="xMidYMid meet">

<g transform="translate(0.000000,380.000000) scale(0.100000,-0.100000)"
fill="#000000" stroke="none">
<path d="M1835 3781 c-74 -46 -91 -108 -57 -208 15 -44 21 -88 23 -168 l2
-109 -35 -12 c-134 -46 -247 -140 -323 -268 -9 -16 -13 -16 -47 -2 -55 24 -68
20 -115 -30 -51 -56 -49 -56 -253 7 -131 41 -139 42 -280 43 -165 1 -209 -9
-350 -76 -109 -53 -239 -178 -288 -278 -91 -186 -81 -386 28 -570 77 -131 99
-149 348 -275 268 -135 349 -192 405 -285 21 -35 64 -91 95 -123 187 -194 207
-210 325 -247 132 -42 324 -16 451 61 26 17 50 28 52 26 2 -2 -2 -28 -8 -59
-10 -49 -9 -59 8 -89 37 -63 114 -75 168 -26 l25 22 -24 120 c-14 66 -25 137
-25 159 l0 39 57 -7 c31 -4 58 -8 60 -9 8 -8 -19 -407 -32 -467 -13 -61 -13
-75 -1 -105 27 -64 106 -76 158 -24 l31 30 -5 165 -5 164 35 -42 c59 -71 133
-138 205 -185 49 -32 66 -49 63 -61 -3 -9 -19 -71 -37 -137 -17 -66 -40 -136
-52 -155 -43 -69 -25 -176 36 -214 41 -26 93 59 108 176 15 117 43 278 50 289
3 6 34 2 80 -11 41 -11 112 -24 157 -27 l84 -6 -3 -366 c-1 -201 1 -373 5
-382 11 -26 65 -61 85 -54 10 3 28 17 41 30 29 31 38 125 21 213 -17 90 -30
265 -32 421 l-1 145 108 18 c60 10 137 27 170 38 175 58 318 200 369 367 26
82 30 217 11 313 -61 302 -277 549 -571 656 -90 32 -90 32 -89 66 1 18 5 98 9
178 9 195 -4 217 -106 190 -61 -17 -99 -58 -99 -110 0 -22 7 -57 15 -77 9 -21
15 -67 15 -114 l0 -79 -57 0 c-79 0 -293 -34 -378 -60 -38 -12 -93 -35 -122
-50 l-51 -29 -55 30 -54 29 -6 68 c-4 37 -9 257 -13 490 l-7 422 24 0 c38 0
123 -44 162 -85 20 -21 46 -63 58 -94 18 -50 20 -68 14 -171 l-7 -116 27 -32
c30 -36 47 -36 99 1 92 65 86 261 -14 415 -79 123 -155 179 -289 213 -29 7
-56 20 -59 28 -3 8 1 60 8 115 25 191 25 202 -2 220 -13 9 -38 19 -56 22 -26
5 -36 1 -63 -25 -31 -31 -31 -34 -25 -94 3 -34 9 -102 13 -150 l6 -88 -49 3
c-45 3 -49 5 -48 28 8 144 16 235 25 288 20 111 -4 162 -75 162 -23 0 -54 -8
-71 -19z m228 -655 c4 -25 10 -237 13 -472 l7 -426 -24 7 c-13 4 -49 20 -81
36 l-56 28 4 263 c3 145 7 336 10 425 l6 161 47 10 c25 5 51 10 57 11 6 0 14
-19 17 -43z m-254 -293 c-1 -142 -4 -305 -8 -362 l-6 -104 -51 41 c-59 46
-159 184 -181 249 -33 95 -4 211 74 303 37 43 147 130 164 130 5 0 8 -113 8
-257z m-816 23 c114 -34 163 -59 272 -141 49 -36 101 -69 116 -72 22 -4 35
-21 70 -92 34 -70 59 -103 133 -176 50 -50 122 -110 160 -135 l69 -44 -7 -236
c-7 -251 -13 -330 -26 -330 -4 0 -36 25 -71 56 -73 65 -111 84 -173 84 -37 0
-48 -5 -66 -27 -31 -39 -22 -94 21 -139 34 -35 138 -93 204 -114 22 -7 43 -15
47 -17 4 -2 -3 -26 -17 -53 -46 -90 -183 -179 -290 -188 -181 -14 -325 174
-325 424 0 176 76 311 215 382 91 46 152 38 278 -34 43 -25 82 -42 87 -39 6 4
10 17 10 31 0 90 -154 204 -275 204 -65 0 -179 -26 -243 -57 -117 -55 -212
-196 -235 -346 -6 -40 -12 -74 -14 -76 -1 -2 -20 7 -40 21 -21 14 -93 57 -159
96 -270 158 -374 264 -436 442 -74 215 9 468 184 556 84 43 151 54 293 50 104
-3 148 -9 218 -30z m1881 -687 c3 -3 -3 -32 -15 -65 -25 -72 -79 -285 -79
-311 0 -28 -100 -327 -112 -334 -9 -6 -177 -23 -208 -21 -8 1 -30 4 -48 8 -41
8 -69 -14 -78 -63 -16 -83 40 -110 154 -75 88 28 152 37 152 23 0 -14 -80
-304 -85 -310 -10 -9 -140 109 -186 168 -51 66 -137 226 -127 237 4 3 32 12
64 21 112 29 185 80 227 158 18 32 22 57 22 125 0 75 -4 93 -32 153 -18 37
-55 92 -84 122 -50 53 -51 56 -33 70 56 42 179 85 284 98 46 6 177 3 184 -4z
m-865 -64 l73 -29 -7 -171 c-4 -93 -8 -212 -8 -263 l-1 -94 -56 7 c-30 4 -58
10 -61 13 -7 7 -29 404 -29 510 0 35 3 62 8 60 4 -1 40 -16 81 -33z m1139 -29
c149 -92 251 -204 322 -350 51 -108 73 -193 73 -296 0 -189 -86 -337 -253
-433 -47 -27 -187 -77 -214 -77 -14 0 -16 26 -16 215 0 165 3 215 13 215 249
10 326 18 368 41 24 13 45 32 47 42 2 10 -11 32 -31 52 -39 39 -72 44 -129 20
-19 -7 -86 -17 -149 -21 l-114 -7 0 322 c0 176 2 321 5 321 3 0 38 -20 78 -44z
m-783 -230 c14 -27 25 -65 25 -83 0 -41 -28 -99 -67 -135 -26 -25 -90 -58
-113 -58 -15 0 -12 157 5 223 8 32 26 80 41 108 l26 51 29 -28 c16 -15 40 -50
54 -78z m580 -192 l8 -182 -74 -4 c-41 -3 -76 -4 -77 -2 -2 1 15 69 37 151 22
81 48 180 56 218 32 144 38 125 50 -181z m5 -525 l0 -222 -77 6 c-93 6 -213
42 -213 62 0 17 86 321 100 353 9 20 16 22 100 22 l90 0 0 -221z"/>
</g>
</svg>
