<?xml version="1.0" standalone="no"?>
<!DOCTYPE svg PUBLIC "-//W3C//DTD SVG 20010904//EN"
 "http://www.w3.org/TR/2001/REC-SVG-20010904/DTD/svg10.dtd">
<svg version="1.0" xmlns="http://www.w3.org/2000/svg"
 width="122.000000pt" height="124.000000pt" viewBox="0 0 122.000000 124.000000"
 preserveAspectRatio="xMidYMid meet">

<g transform="translate(0.000000,124.000000) scale(0.100000,-0.100000)"
fill="#000000" stroke="none">
<path d="M577 1222 c-14 -15 -15 -30 -10 -85 5 -57 4 -67 -10 -67 -9 0 -35
-18 -58 -40 -23 -22 -50 -40 -59 -40 -10 0 -23 -6 -29 -14 -10 -11 -23 -11
-84 6 -87 23 -141 18 -211 -20 -103 -56 -136 -170 -79 -274 23 -43 37 -54 112
-94 104 -54 106 -55 156 -122 22 -29 54 -62 71 -73 46 -28 112 -34 158 -15 48
20 46 20 46 -3 0 -26 25 -44 51 -36 19 6 21 13 17 61 -4 41 -1 54 9 54 14 0
13 -17 -2 -142 -5 -34 12 -68 34 -68 21 0 40 29 43 66 l3 42 39 -34 39 -34
-21 -62 c-21 -66 -16 -108 12 -108 21 0 46 51 46 92 0 50 9 58 58 51 l43 -6
-2 -116 c-3 -122 1 -141 30 -141 35 0 45 25 32 87 -6 31 -11 82 -11 114 0 56
1 59 28 65 136 29 203 110 188 227 -13 97 -82 187 -170 223 l-48 19 7 48 c9
75 -23 110 -66 71 -14 -13 -17 -26 -12 -63 l5 -48 -57 -7 c-31 -3 -73 -13 -92
-21 -70 -29 -73 -23 -73 151 0 85 4 154 8 154 5 0 19 -11 32 -25 18 -20 23
-35 22 -74 -1 -58 15 -79 47 -61 63 33 18 168 -69 206 l-42 19 7 52 c5 45 4
54 -11 60 -9 3 -25 1 -35 -5 -15 -10 -18 -8 -21 16 -4 34 -45 43 -71 14z m83
-114 c0 -10 -4 -18 -9 -18 -5 0 -9 14 -9 31 1 32 18 20 18 -13z m4 -165 c3
-42 6 -105 6 -141 0 -54 -2 -63 -16 -58 -9 3 -18 6 -20 6 -7 0 -4 256 3 263
15 16 20 3 27 -70z m-85 -25 c-1 -40 -4 -86 -8 -103 l-6 -30 -28 40 c-35 51
-35 94 -1 134 14 17 30 31 35 31 5 0 8 -33 8 -72z m-244 -1 c56 -22 122 -72
144 -109 11 -20 39 -49 61 -65 l40 -28 0 -76 c0 -42 -3 -79 -6 -82 -4 -3 -16
0 -28 8 -27 20 -72 19 -80 -1 -10 -25 13 -54 56 -74 l41 -18 -26 -26 c-55 -55
-120 -46 -154 24 -40 78 -22 156 42 187 34 16 37 16 80 -5 41 -20 46 -20 52
-5 4 11 -4 26 -25 45 -72 64 -209 13 -229 -84 -3 -16 -10 -28 -15 -28 -24 0
-147 91 -167 123 -45 73 -36 154 20 202 26 21 40 25 97 24 37 0 81 -6 97 -12z
m585 -220 c0 -2 -6 -26 -14 -53 -8 -27 -21 -75 -30 -106 -16 -57 -17 -58 -54
-58 -29 1 -33 3 -20 10 9 6 22 26 28 45 11 33 3 62 -37 137 -6 10 48 26 90 27
20 1 37 0 37 -2z m-254 -105 c-4 -42 -9 -79 -12 -81 -11 -12 -18 17 -22 95
l-5 86 23 -12 c21 -11 22 -16 16 -88z m406 31 c40 -41 68 -98 68 -135 -1 -21
-2 -21 -11 -5 -9 15 -19 17 -70 11 l-59 -7 0 97 c0 110 2 111 72 39z m-312
-23 c14 -26 5 -57 -21 -70 -17 -9 -19 -7 -19 17 0 38 10 73 21 73 4 0 13 -9
19 -20z m176 -108 c-11 -10 -15 4 -8 28 l7 25 3 -23 c2 -13 1 -26 -2 -30z
m187 -105 c-18 -31 -84 -76 -110 -77 -9 0 -13 20 -13 65 l0 65 53 0 c28 0 59
5 67 10 23 15 25 -25 3 -63z m-285 6 c-5 -21 -12 -40 -14 -42 -6 -6 -64 51
-64 62 0 5 6 7 13 4 6 -2 21 -1 32 4 40 15 44 11 33 -28z m112 -28 l0 -64 -32
6 c-18 3 -36 8 -40 12 -4 3 0 30 8 59 13 44 19 52 40 52 23 0 24 -3 24 -65z"/>
</g>
</svg>
